<svg id="svg" version="1.1" xmlns="http://www.w3.org/2000/svg" xmlns:xlink="http://www.w3.org/1999/xlink" width="400" height="248.76911116869655" viewBox="0, 0, 400,248.76911116869655"><g id="svgg"><path id="path0" d="M50.167 98.906 C 42.989 100.419,37.951 106.890,37.544 115.117 C 37.300 120.043,39.200 122.825,44.250 124.936 C 50.473 127.537,51.247 128.134,51.224 130.311 C 51.162 136.066,43.715 137.030,38.658 131.938 L 37.565 130.838 36.456 132.627 C 35.846 133.611,34.560 135.654,33.599 137.166 L 31.852 139.915 32.217 140.309 C 34.180 142.424,39.044 144.484,42.847 144.811 C 53.200 145.702,61.089 139.060,61.990 128.694 C 62.570 122.016,60.148 118.974,51.833 115.939 C 47.676 114.422,47.072 110.521,50.714 108.702 C 53.272 107.425,56.108 108.039,58.702 110.431 L 59.321 111.002 59.879 110.126 C 62.552 105.927,64.702 102.124,64.485 101.980 C 60.494 99.328,54.384 98.016,50.167 98.906 M270.665 100.042 C 270.664 100.156,270.477 101.412,270.248 102.833 C 269.732 106.040,268.654 112.785,267.918 117.417 C 267.612 119.342,267.161 122.154,266.916 123.667 C 266.672 125.179,266.372 127.054,266.250 127.833 C 266.034 129.215,265.598 131.923,264.749 137.167 C 264.518 138.587,264.216 140.500,264.077 141.417 C 263.938 142.333,263.784 143.215,263.734 143.375 C 263.649 143.651,264.245 143.667,274.652 143.667 L 285.660 143.667 285.745 143.292 C 285.791 143.085,285.978 141.979,286.160 140.833 C 286.342 139.688,286.643 137.795,286.829 136.628 C 287.015 135.461,287.167 134.392,287.167 134.253 C 287.167 134.032,286.427 134.000,281.250 134.000 C 275.428 134.000,275.333 133.995,275.333 133.664 C 275.333 133.349,275.554 131.898,276.333 127.083 C 276.511 125.983,276.885 123.658,277.165 121.917 C 277.445 120.175,277.784 118.075,277.917 117.250 C 278.051 116.425,278.351 114.550,278.584 113.083 C 278.817 111.617,279.117 109.742,279.251 108.917 C 279.464 107.597,280.327 102.182,280.598 100.458 L 280.696 99.833 275.681 99.833 C 271.781 99.833,270.666 99.880,270.665 100.042 M357.606 105.125 C 357.560 105.285,357.253 107.142,356.922 109.250 C 356.592 111.358,356.286 113.249,356.243 113.452 C 356.169 113.796,356.059 113.824,354.631 113.869 L 353.099 113.917 352.716 116.333 C 352.505 117.662,352.218 119.500,352.078 120.417 C 351.939 121.333,351.784 122.215,351.734 122.375 C 351.653 122.638,351.793 122.667,353.155 122.667 C 354.961 122.667,354.849 122.240,354.161 126.500 C 353.888 128.196,353.552 130.296,353.417 131.167 C 353.281 132.037,352.981 133.912,352.750 135.333 C 352.519 136.754,352.220 138.629,352.086 139.500 C 351.951 140.371,351.741 141.665,351.618 142.375 L 351.395 143.667 356.011 143.667 L 360.626 143.667 360.811 142.458 C 360.913 141.794,361.185 140.087,361.416 138.667 C 361.875 135.840,362.763 130.261,363.418 126.083 C 363.648 124.617,363.874 123.250,363.920 123.046 C 364.002 122.684,364.070 122.674,366.618 122.629 L 369.232 122.583 369.434 121.417 C 369.545 120.775,369.833 118.975,370.074 117.417 C 370.315 115.858,370.548 114.416,370.592 114.212 C 370.671 113.843,370.662 113.841,368.031 113.796 L 365.391 113.750 365.761 111.500 C 365.964 110.263,366.254 108.462,366.405 107.500 C 366.556 106.537,366.720 105.544,366.770 105.292 L 366.860 104.833 362.274 104.833 C 358.050 104.833,357.683 104.856,357.606 105.125 M159.192 113.011 C 145.591 115.413,139.612 137.049,150.847 143.210 C 158.212 147.249,167.798 144.050,172.076 136.125 L 172.864 134.667 168.405 134.667 L 163.947 134.667 163.008 135.562 C 161.487 137.013,160.901 137.250,158.833 137.250 C 155.255 137.250,153.503 134.859,154.271 131.021 L 154.375 130.500 164.086 130.500 L 173.797 130.500 173.889 130.125 C 174.757 126.586,174.301 121.288,172.876 118.366 C 170.823 114.155,165.192 111.952,159.192 113.011 M235.833 112.945 C 227.853 114.206,222.300 120.922,221.312 130.508 C 220.288 140.448,227.465 146.480,237.833 144.392 C 242.393 143.473,246.123 140.433,248.484 135.708 L 249.005 134.667 244.563 134.667 L 240.122 134.667 239.298 135.504 C 237.915 136.909,237.075 137.250,235.000 137.250 C 231.507 137.250,229.930 135.253,230.407 131.435 L 230.524 130.500 240.259 130.500 L 249.994 130.500 250.079 130.125 C 250.821 126.844,250.568 122.125,249.502 119.362 C 247.628 114.508,242.165 111.944,235.833 112.945 M303.083 112.954 C 292.173 114.507,284.591 127.076,288.443 137.227 C 292.468 147.836,309.735 147.097,316.388 136.031 C 323.848 123.622,316.590 111.032,303.083 112.954 M334.686 113.011 C 317.749 116.016,313.345 140.803,329.101 144.437 C 341.831 147.373,354.315 134.129,350.644 121.583 C 348.809 115.312,342.082 111.699,334.686 113.011 M111.083 113.314 C 109.034 113.910,107.670 114.703,106.157 116.176 C 105.109 117.196,105.137 117.219,105.426 115.582 C 105.555 114.849,105.662 114.156,105.663 114.042 C 105.666 113.880,104.643 113.833,101.097 113.833 L 96.526 113.833 96.434 114.292 C 96.382 114.544,96.150 115.950,95.916 117.417 C 95.683 118.883,95.383 120.758,95.249 121.583 C 95.116 122.408,94.853 124.058,94.665 125.250 C 94.184 128.301,93.690 131.409,93.498 132.583 C 93.408 133.133,93.108 135.008,92.830 136.750 C 92.553 138.492,92.217 140.592,92.084 141.417 C 91.950 142.242,91.651 144.117,91.418 145.583 C 91.186 147.050,90.848 149.150,90.667 150.250 C 89.825 155.386,89.333 158.444,89.333 158.550 C 89.333 158.614,91.391 158.667,93.905 158.667 L 98.476 158.667 98.646 157.792 C 98.739 157.310,99.011 155.679,99.250 154.167 C 99.784 150.781,100.558 145.971,101.034 143.072 L 101.391 140.894 102.487 142.008 C 108.691 148.313,120.503 142.775,123.835 132.000 C 127.387 120.517,120.587 110.552,111.083 113.314 M144.833 113.345 C 142.185 113.744,139.230 115.563,137.583 117.810 C 136.869 118.784,136.861 118.743,137.248 116.208 L 137.598 113.917 133.101 113.872 C 130.629 113.848,128.552 113.885,128.486 113.956 C 128.381 114.068,128.167 115.320,127.250 121.167 C 127.128 121.946,126.835 123.783,126.598 125.250 C 126.361 126.717,125.980 129.079,125.750 130.500 C 125.084 134.631,123.667 143.546,123.667 143.609 C 123.667 143.641,125.723 143.667,128.237 143.667 L 132.807 143.667 132.897 143.208 C 133.030 142.533,133.295 140.960,133.577 139.167 C 135.242 128.571,135.271 128.438,136.357 126.287 C 138.076 122.882,142.143 121.376,145.541 122.888 L 146.498 123.314 146.581 122.949 C 146.663 122.590,147.294 118.627,147.768 115.500 C 147.901 114.629,148.046 113.795,148.092 113.647 C 148.236 113.179,146.811 113.048,144.833 113.345 M194.162 113.510 C 192.199 113.799,189.817 114.909,187.928 116.413 C 187.295 116.918,186.745 117.301,186.708 117.263 C 186.640 117.196,186.941 114.940,187.115 114.206 L 187.204 113.828 182.571 113.872 L 177.937 113.917 177.638 115.833 C 177.474 116.888,177.147 118.950,176.912 120.417 C 176.338 124.010,176.084 125.601,175.585 128.750 C 175.352 130.217,175.014 132.317,174.834 133.417 C 174.654 134.517,174.279 136.842,174.002 138.583 C 173.725 140.325,173.456 142.012,173.404 142.333 C 173.353 142.654,173.270 143.085,173.221 143.292 L 173.131 143.667 177.815 143.667 L 182.500 143.667 182.500 143.272 C 182.500 143.055,182.606 142.248,182.736 141.480 C 182.866 140.712,183.170 138.846,183.412 137.333 C 185.048 127.089,185.107 126.775,185.746 125.078 C 186.879 122.069,188.943 120.787,191.509 121.500 C 193.671 122.100,193.870 124.110,192.568 132.167 C 192.250 134.137,191.840 136.688,191.658 137.833 C 190.968 142.168,190.814 143.092,190.730 143.375 C 190.650 143.648,190.944 143.667,195.288 143.667 L 199.932 143.667 200.401 140.708 C 200.659 139.081,201.042 136.700,201.252 135.417 C 201.462 134.133,201.759 132.258,201.911 131.250 C 202.980 124.166,204.531 121.638,207.826 121.608 C 210.849 121.580,211.534 123.889,210.439 130.417 C 209.983 133.139,209.304 137.323,208.979 139.417 C 208.879 140.058,208.693 141.173,208.565 141.893 C 208.438 142.614,208.333 143.308,208.333 143.435 C 208.333 143.627,209.113 143.667,212.899 143.667 L 217.464 143.667 217.558 143.292 C 217.609 143.085,217.841 141.679,218.074 140.167 C 218.306 138.654,218.685 136.254,218.916 134.833 C 219.147 133.412,219.448 131.537,219.583 130.667 C 219.719 129.796,220.054 127.696,220.328 126.000 C 221.260 120.227,220.889 117.459,218.896 115.329 C 215.530 111.730,207.682 113.302,204.312 118.251 C 203.820 118.973,203.730 118.974,203.431 118.259 C 201.963 114.746,198.347 112.893,194.162 113.510 M66.095 114.042 C 66.062 114.156,65.952 114.775,65.852 115.417 C 65.752 116.058,65.485 117.746,65.258 119.167 C 65.032 120.587,64.694 122.725,64.508 123.917 C 64.322 125.108,63.899 127.733,63.568 129.750 C 62.629 135.473,62.722 137.925,63.965 140.222 C 67.169 146.141,81.328 146.466,87.101 140.754 C 89.875 138.009,90.329 136.691,91.919 126.750 C 92.524 122.966,93.043 119.703,93.428 117.250 C 93.659 115.783,93.883 114.413,93.927 114.206 L 94.008 113.828 89.390 113.872 L 84.773 113.917 84.568 115.167 C 84.009 118.577,82.598 127.415,82.319 129.250 C 81.531 134.437,80.126 136.083,76.488 136.083 C 72.830 136.083,72.013 134.491,72.892 129.077 C 73.130 127.614,73.508 125.254,73.733 123.833 C 74.893 116.507,75.181 114.711,75.267 114.292 L 75.360 113.833 70.758 113.833 C 67.220 113.833,66.142 113.882,66.095 114.042 M163.583 119.960 C 164.909 120.644,165.888 122.079,166.096 123.642 L 166.210 124.500 160.938 124.500 C 154.981 124.500,155.383 124.621,156.162 123.062 C 157.625 120.135,161.103 118.682,163.583 119.960 M239.312 119.774 C 240.909 120.290,242.333 122.246,242.333 123.923 L 242.333 124.500 237.083 124.500 C 231.143 124.500,231.548 124.625,232.341 123.038 C 233.691 120.335,236.695 118.929,239.312 119.774 M306.375 122.222 C 308.633 123.165,309.917 126.137,309.317 129.033 C 307.702 136.836,297.778 137.911,297.372 130.327 C 297.089 125.034,302.166 120.463,306.375 122.222 M338.690 122.445 C 341.678 124.072,342.223 128.777,339.826 132.261 C 336.851 136.585,331.263 136.645,329.664 132.370 C 327.521 126.642,333.772 119.769,338.690 122.445 M112.378 122.552 C 117.743 125.696,114.385 135.500,107.943 135.500 C 102.893 135.500,101.247 128.863,105.197 124.431 C 107.244 122.135,110.301 121.335,112.378 122.552 " stroke="none" fill="#fbfbfb" fill-rule="evenodd"></path><path id="path1" d="M15.667 128.083 L 15.667 179.000 202.500 179.000 L 389.333 179.000 389.333 128.083 L 389.333 77.167 202.500 77.167 L 15.667 77.167 15.667 128.083 M57.599 98.992 C 59.964 99.560,63.367 100.983,64.547 101.898 C 64.807 102.099,60.430 109.896,59.497 110.893 C 59.423 110.972,58.888 110.641,58.307 110.157 C 54.169 106.709,48.476 108.043,48.476 112.460 C 48.476 114.124,49.392 114.890,53.039 116.280 C 61.895 119.655,64.277 125.300,60.729 134.500 C 56.687 144.979,42.763 148.413,33.278 141.271 C 32.559 140.730,31.936 140.193,31.892 140.079 C 31.848 139.964,33.102 137.804,34.679 135.279 L 37.545 130.688 38.648 131.823 C 43.444 136.761,50.630 136.091,51.123 130.660 C 51.327 128.413,50.455 127.640,45.290 125.482 C 38.623 122.696,36.720 119.768,37.575 113.611 C 39.066 102.873,47.655 96.602,57.599 98.992 M280.751 100.125 C 280.710 100.377,280.559 101.333,280.415 102.250 C 280.271 103.167,280.084 104.329,280.000 104.833 C 279.916 105.337,279.729 106.500,279.585 107.417 C 279.442 108.333,279.253 109.496,279.166 110.000 C 279.079 110.504,278.814 112.154,278.578 113.667 C 278.193 116.139,277.597 119.870,276.917 124.083 C 276.784 124.908,276.485 126.783,276.254 128.250 C 275.778 131.266,275.516 132.872,275.392 133.542 L 275.307 134.000 281.320 134.000 C 284.627 134.000,287.333 134.043,287.333 134.096 C 287.333 134.149,287.190 135.031,287.014 136.055 C 286.839 137.079,286.487 139.210,286.233 140.792 L 285.771 143.667 274.704 143.667 L 263.637 143.667 263.745 142.958 C 263.803 142.569,264.032 141.125,264.252 139.750 C 264.472 138.375,264.841 136.050,265.073 134.583 C 265.830 129.800,266.498 125.622,266.833 123.583 C 267.014 122.483,267.352 120.383,267.585 118.917 C 267.818 117.450,268.121 115.537,268.259 114.667 C 268.397 113.796,268.693 111.958,268.915 110.583 C 269.138 109.208,269.587 106.396,269.912 104.333 C 270.238 102.271,270.547 100.377,270.599 100.125 L 270.693 99.667 275.759 99.667 L 280.825 99.667 280.751 100.125 M366.922 105.042 C 366.885 105.156,366.697 106.263,366.503 107.500 C 366.310 108.737,366.039 110.462,365.903 111.333 C 365.766 112.204,365.619 113.085,365.574 113.292 L 365.494 113.667 368.080 113.667 L 370.667 113.667 370.667 114.096 C 370.667 114.333,370.524 115.364,370.349 116.388 C 370.174 117.412,369.908 119.037,369.759 120.000 C 369.609 120.962,369.446 121.956,369.397 122.208 L 369.307 122.667 366.692 122.667 L 364.077 122.667 363.603 125.625 C 363.343 127.252,362.953 129.671,362.736 131.000 C 361.985 135.607,361.154 140.834,360.867 142.750 L 360.742 143.583 356.038 143.628 C 353.388 143.653,351.333 143.607,351.333 143.524 C 351.333 143.443,351.440 142.748,351.570 141.980 C 351.700 141.212,352.003 139.346,352.245 137.833 C 352.486 136.321,352.907 133.696,353.180 132.000 C 353.453 130.304,353.862 127.754,354.090 126.333 C 354.318 124.912,354.544 123.506,354.593 123.208 L 354.682 122.667 353.153 122.667 L 351.624 122.667 351.730 121.958 C 352.247 118.517,352.868 114.659,352.970 114.250 L 353.095 113.750 354.599 113.702 L 356.104 113.655 356.300 112.452 C 357.080 107.683,357.498 105.065,357.499 104.958 C 357.500 104.890,359.635 104.833,362.245 104.833 C 365.965 104.833,366.975 104.878,366.922 105.042 M164.946 112.836 C 172.124 114.001,175.733 120.490,174.122 129.333 L 173.894 130.583 164.114 130.626 L 154.333 130.669 154.333 132.314 C 154.333 134.885,154.900 136.077,156.462 136.792 C 158.798 137.862,161.754 137.157,163.371 135.144 L 163.889 134.500 168.361 134.500 C 171.496 134.500,172.833 134.555,172.833 134.683 C 172.833 135.508,170.167 139.515,168.735 140.841 C 162.124 146.965,150.200 146.000,146.544 139.045 C 143.677 133.591,144.809 125.024,149.171 119.167 C 152.724 114.395,159.009 111.873,164.946 112.836 M242.664 113.164 C 248.955 114.972,251.967 121.706,250.194 130.000 L 250.070 130.583 240.285 130.626 L 230.500 130.669 230.500 132.305 C 230.500 133.343,230.594 134.217,230.758 134.696 C 231.862 137.937,237.080 138.203,239.538 135.144 L 240.056 134.500 244.528 134.500 C 247.471 134.500,249.000 134.558,249.000 134.671 C 249.000 135.523,246.792 138.900,245.179 140.514 C 238.552 147.149,226.166 146.137,222.557 138.667 C 220.075 133.531,220.996 125.731,224.761 119.997 C 228.521 114.269,236.248 111.320,242.664 113.164 M310.244 113.243 C 318.810 115.782,321.946 125.280,317.290 134.583 C 310.777 147.596,291.752 148.568,287.938 136.083 C 284.014 123.237,297.472 109.457,310.244 113.243 M340.857 112.930 C 349.675 114.594,353.715 123.573,349.917 133.066 C 344.207 147.340,323.655 149.280,319.830 135.906 C 316.291 123.529,328.180 110.538,340.857 112.930 M116.250 113.083 C 125.153 114.944,127.825 127.477,121.406 137.265 C 116.508 144.735,107.297 147.053,102.375 142.055 C 101.358 141.022,101.333 141.009,101.333 141.480 C 101.333 141.746,101.229 142.553,101.101 143.273 C 100.832 144.792,100.672 145.781,100.007 150.000 C 99.740 151.696,99.318 154.340,99.069 155.875 L 98.616 158.667 93.880 158.667 C 89.448 158.667,89.150 158.648,89.229 158.375 C 89.311 158.094,89.745 155.475,90.256 152.167 C 90.391 151.296,90.573 150.171,90.661 149.667 C 90.829 148.700,90.961 147.882,91.495 144.500 C 91.804 142.538,92.541 137.936,93.083 134.583 C 93.217 133.758,93.553 131.658,93.830 129.917 C 94.108 128.175,94.407 126.300,94.496 125.750 C 95.029 122.445,95.521 119.359,95.758 117.833 C 95.907 116.871,96.121 115.558,96.232 114.917 L 96.435 113.750 100.998 113.706 C 106.062 113.656,105.905 113.621,105.682 114.763 C 105.594 115.214,105.473 115.880,105.413 116.243 L 105.305 116.903 106.111 116.126 C 108.966 113.374,112.529 112.305,116.250 113.083 M148.167 113.478 C 148.167 113.649,148.061 114.418,147.932 115.187 C 147.802 115.955,147.456 118.083,147.161 119.917 C 146.534 123.822,146.702 123.461,145.709 123.034 C 141.972 121.427,138.143 122.875,136.324 126.583 C 135.404 128.458,135.302 128.921,134.013 137.000 C 133.743 138.696,133.392 140.890,133.233 141.875 L 132.945 143.667 128.238 143.667 C 123.844 143.667,123.535 143.647,123.590 143.375 C 123.622 143.215,123.726 142.596,123.821 142.000 C 123.916 141.404,124.184 139.717,124.418 138.250 C 124.652 136.783,124.915 135.133,125.005 134.583 C 125.094 134.033,125.356 132.383,125.587 130.917 C 125.819 129.450,126.117 127.575,126.250 126.750 C 126.383 125.925,126.721 123.825,127.001 122.083 C 127.962 116.089,128.325 113.981,128.422 113.824 C 128.625 113.496,137.667 113.627,137.666 113.958 C 137.665 114.119,137.514 115.143,137.330 116.234 C 136.972 118.356,136.977 118.557,137.379 117.964 C 138.154 116.817,140.249 114.977,141.548 114.302 C 143.571 113.250,148.167 112.678,148.167 113.478 M215.181 113.404 C 220.105 114.282,221.837 118.214,220.508 125.500 C 220.416 126.004,220.148 127.654,219.912 129.167 C 219.377 132.592,218.551 137.783,218.347 139.000 C 218.263 139.504,218.059 140.760,217.895 141.792 L 217.597 143.667 212.879 143.667 L 208.160 143.667 208.246 143.292 C 208.294 143.085,208.592 141.267,208.910 139.250 C 209.228 137.233,209.566 135.096,209.662 134.500 C 209.758 133.904,209.951 132.704,210.090 131.833 C 210.230 130.962,210.436 129.800,210.547 129.250 C 210.896 127.523,210.816 123.695,210.417 123.017 C 209.821 122.006,209.305 121.750,207.863 121.750 C 204.799 121.750,203.139 124.118,202.255 129.750 C 202.111 130.667,201.952 131.642,201.902 131.917 C 201.852 132.192,201.707 133.092,201.580 133.917 C 201.346 135.435,201.208 136.303,200.744 139.167 C 200.603 140.037,200.416 141.237,200.328 141.833 C 200.241 142.429,200.129 143.085,200.081 143.292 L 199.994 143.667 195.330 143.667 C 192.731 143.667,190.667 143.601,190.667 143.519 C 190.667 143.380,191.339 139.130,192.266 133.417 C 193.974 122.880,193.729 121.500,190.149 121.500 C 187.187 121.500,185.683 123.756,184.762 129.583 C 184.617 130.500,184.427 131.662,184.339 132.167 C 184.156 133.218,184.025 134.035,183.336 138.417 C 183.061 140.158,182.753 142.052,182.650 142.625 L 182.462 143.667 177.814 143.667 C 174.069 143.667,173.167 143.624,173.167 143.446 C 173.167 143.325,173.281 142.518,173.421 141.654 C 173.560 140.790,173.787 139.371,173.925 138.500 C 174.063 137.629,174.246 136.504,174.332 136.000 C 174.418 135.496,174.603 134.333,174.743 133.417 C 174.882 132.500,175.262 130.100,175.587 128.083 C 175.912 126.067,176.401 123.029,176.674 121.333 C 176.947 119.638,177.286 117.500,177.428 116.583 C 177.570 115.667,177.740 114.654,177.807 114.333 L 177.929 113.750 182.548 113.706 L 187.167 113.661 187.165 114.122 C 187.164 114.640,186.873 116.577,186.723 117.073 C 186.653 117.301,186.886 117.179,187.521 116.654 C 193.375 111.814,200.575 112.319,203.273 117.758 L 203.773 118.766 204.679 117.682 C 206.852 115.079,209.171 113.800,212.667 113.275 C 213.460 113.156,213.922 113.179,215.181 113.404 M75.333 114.082 C 75.333 114.311,75.033 116.355,74.665 118.624 C 74.297 120.893,73.878 123.500,73.733 124.417 C 73.588 125.333,73.324 126.908,73.147 127.917 C 72.045 134.174,72.816 136.045,76.500 136.062 C 80.371 136.079,81.450 134.457,82.580 126.917 C 82.731 125.908,82.924 124.708,83.009 124.250 C 83.095 123.792,83.467 121.467,83.836 119.083 C 84.205 116.700,84.565 114.525,84.635 114.250 L 84.762 113.750 89.381 113.706 L 94.000 113.661 94.000 114.151 C 94.000 114.421,93.927 115.003,93.837 115.446 C 93.748 115.888,93.487 117.450,93.259 118.917 C 93.030 120.383,92.614 123.008,92.336 124.750 C 92.057 126.492,91.639 129.117,91.407 130.583 C 89.773 140.932,85.314 144.834,75.125 144.833 C 65.872 144.832,61.464 140.430,62.992 132.717 C 63.079 132.277,63.345 130.679,63.584 129.167 C 64.068 126.093,64.915 120.778,65.164 119.250 C 65.254 118.700,65.482 117.280,65.672 116.095 C 65.862 114.909,66.056 113.878,66.102 113.803 C 66.148 113.728,68.244 113.667,70.760 113.667 L 75.333 113.667 75.333 114.082 M159.668 119.945 C 158.062 120.506,156.844 121.682,156.082 123.403 L 155.671 124.333 160.894 124.333 L 166.117 124.333 165.985 123.499 C 165.512 120.507,162.655 118.900,159.668 119.945 M235.833 119.943 C 234.356 120.457,233.274 121.483,232.348 123.248 C 231.746 124.396,231.470 124.333,237.162 124.333 L 242.325 124.333 242.231 123.792 C 241.649 120.458,238.977 118.850,235.833 119.943 M109.053 122.170 C 107.140 122.561,104.918 124.392,103.959 126.366 C 100.241 134.024,108.758 139.150,113.528 132.125 C 116.825 127.271,114.070 121.143,109.053 122.170 M302.714 122.234 C 297.337 123.977,295.461 132.305,299.877 134.828 C 305.079 137.798,311.558 130.058,308.612 124.392 C 307.620 122.484,304.953 121.508,302.714 122.234 M334.667 122.219 C 327.825 124.611,327.485 135.381,334.250 135.406 C 340.528 135.429,343.931 125.611,338.706 122.549 C 337.825 122.033,335.698 121.859,334.667 122.219 " stroke="none" fill="#e42424" fill-rule="evenodd"></path><path id="path2" d="M52.792 98.621 C 53.090 98.658,53.577 98.658,53.875 98.621 C 54.173 98.584,53.929 98.553,53.333 98.553 C 52.737 98.553,52.494 98.584,52.792 98.621 M53.044 108.120 C 53.297 108.158,53.672 108.157,53.877 108.117 C 54.082 108.078,53.875 108.046,53.417 108.048 C 52.958 108.049,52.791 108.081,53.044 108.120 M161.713 112.789 C 162.152 112.824,162.827 112.823,163.213 112.788 C 163.600 112.754,163.242 112.725,162.417 112.726 C 161.592 112.726,161.275 112.755,161.713 112.789 M237.880 112.789 C 238.318 112.824,238.993 112.823,239.380 112.788 C 239.767 112.754,239.408 112.725,238.583 112.726 C 237.758 112.726,237.442 112.755,237.880 112.789 M305.213 112.789 C 305.652 112.824,306.327 112.823,306.713 112.788 C 307.100 112.754,306.742 112.725,305.917 112.726 C 305.092 112.726,304.775 112.755,305.213 112.789 M337.125 112.789 C 337.515 112.824,338.152 112.824,338.542 112.789 C 338.931 112.754,338.612 112.725,337.833 112.725 C 337.054 112.725,336.735 112.754,337.125 112.789 M113.544 112.953 C 113.797 112.991,114.172 112.990,114.377 112.951 C 114.582 112.911,114.375 112.880,113.917 112.881 C 113.458 112.882,113.291 112.915,113.544 112.953 M158.302 124.458 C 159.798 124.486,162.198 124.486,163.635 124.458 C 165.073 124.430,163.850 124.408,160.917 124.408 C 157.983 124.408,156.807 124.430,158.302 124.458 M234.469 124.458 C 235.964 124.486,238.364 124.486,239.802 124.458 C 241.240 124.430,240.017 124.408,237.083 124.408 C 234.150 124.408,232.973 124.430,234.469 124.458 M193.381 125.417 C 193.382 125.875,193.415 126.043,193.453 125.789 C 193.491 125.536,193.490 125.161,193.451 124.956 C 193.411 124.751,193.380 124.958,193.381 125.417 M62.039 126.167 C 62.039 126.487,62.073 126.619,62.115 126.458 C 62.157 126.298,62.157 126.035,62.115 125.875 C 62.073 125.715,62.039 125.846,62.039 126.167 M62.039 128.000 C 62.039 128.321,62.073 128.452,62.115 128.292 C 62.157 128.131,62.157 127.869,62.115 127.708 C 62.073 127.548,62.039 127.679,62.039 128.000 M287.390 131.750 C 287.391 132.483,287.420 132.763,287.456 132.371 C 287.491 131.979,287.490 131.379,287.454 131.037 C 287.419 130.696,287.390 131.017,287.390 131.750 M62.872 134.167 C 62.872 134.487,62.906 134.619,62.948 134.458 C 62.990 134.298,62.990 134.035,62.948 133.875 C 62.906 133.715,62.872 133.846,62.872 134.167 M163.775 134.625 C 163.733 134.694,165.060 134.731,166.724 134.707 C 172.373 134.628,172.929 134.570,168.385 134.535 C 165.892 134.516,163.818 134.556,163.775 134.625 M242.208 134.625 C 243.469 134.653,245.531 134.653,246.792 134.625 C 248.052 134.596,247.021 134.573,244.500 134.573 C 241.979 134.573,240.948 134.596,242.208 134.625 M313.500 139.583 C 313.095 139.996,312.801 140.333,312.847 140.333 C 312.893 140.333,313.262 139.996,313.667 139.583 C 314.072 139.171,314.365 138.833,314.319 138.833 C 314.274 138.833,313.905 139.171,313.500 139.583 M245.075 140.542 L 244.417 141.250 245.125 140.591 C 245.784 139.978,245.910 139.833,245.784 139.833 C 245.757 139.833,245.438 140.152,245.075 140.542 M168.824 140.625 L 168.250 141.250 168.875 140.676 C 169.219 140.360,169.500 140.078,169.500 140.051 C 169.500 139.923,169.359 140.043,168.824 140.625 M224.500 141.417 C 224.811 141.737,225.103 142.000,225.149 142.000 C 225.195 142.000,224.978 141.737,224.667 141.417 C 224.356 141.096,224.064 140.833,224.018 140.833 C 223.972 140.833,224.189 141.096,224.500 141.417 " stroke="none" fill="#f4947c" fill-rule="evenodd"></path><path id="path3" d="M213.294 113.285 C 213.501 113.324,213.801 113.323,213.960 113.281 C 214.120 113.239,213.950 113.207,213.583 113.209 C 213.217 113.211,213.086 113.245,213.294 113.285 M68.468 113.791 C 69.780 113.820,71.880 113.819,73.135 113.791 C 74.390 113.763,73.317 113.740,70.750 113.740 C 68.183 113.740,67.157 113.763,68.468 113.791 M87.135 113.791 C 88.447 113.820,90.547 113.819,91.802 113.791 C 93.057 113.763,91.983 113.740,89.417 113.740 C 86.850 113.740,85.823 113.763,87.135 113.791 M96.444 113.789 C 96.400 113.859,98.452 113.896,101.003 113.870 C 105.072 113.829,105.650 113.855,105.720 114.082 C 105.778 114.271,105.792 114.261,105.772 114.045 C 105.744 113.732,96.634 113.482,96.444 113.789 M130.802 113.791 C 132.114 113.820,134.214 113.819,135.468 113.791 C 136.723 113.763,135.650 113.740,133.083 113.740 C 130.517 113.740,129.490 113.763,130.802 113.791 M180.302 113.791 C 181.614 113.820,183.714 113.819,184.968 113.791 C 186.223 113.763,185.150 113.740,182.583 113.740 C 180.017 113.740,178.990 113.763,180.302 113.791 M353.875 113.789 C 354.310 113.824,355.023 113.824,355.458 113.789 C 355.894 113.755,355.537 113.727,354.667 113.727 C 353.796 113.727,353.440 113.755,353.875 113.789 M366.800 113.791 C 367.560 113.822,368.760 113.822,369.466 113.790 C 370.172 113.759,369.550 113.734,368.083 113.734 C 366.617 113.734,366.039 113.760,366.800 113.791 M37.387 115.833 C 37.387 116.429,37.417 116.673,37.454 116.375 C 37.491 116.077,37.491 115.590,37.454 115.292 C 37.417 114.994,37.387 115.237,37.387 115.833 M170.667 115.385 C 170.667 115.414,170.910 115.658,171.208 115.927 L 171.750 116.417 171.260 115.875 C 170.804 115.370,170.667 115.257,170.667 115.385 M246.833 115.385 C 246.833 115.414,247.077 115.658,247.375 115.927 L 247.917 116.417 247.427 115.875 C 246.971 115.370,246.833 115.257,246.833 115.385 M324.833 118.083 C 324.428 118.496,324.135 118.833,324.181 118.833 C 324.226 118.833,324.595 118.496,325.000 118.083 C 325.405 117.671,325.699 117.333,325.653 117.333 C 325.607 117.333,325.238 117.671,324.833 118.083 M59.000 119.552 C 59.000 119.581,59.244 119.825,59.542 120.094 L 60.083 120.583 59.594 120.042 C 59.138 119.537,59.000 119.423,59.000 119.552 M189.960 121.451 C 190.168 121.491,190.468 121.490,190.627 121.448 C 190.786 121.406,190.617 121.374,190.250 121.375 C 189.883 121.377,189.753 121.411,189.960 121.451 M220.872 122.167 C 220.872 122.487,220.906 122.619,220.948 122.458 C 220.990 122.298,220.990 122.035,220.948 121.875 C 220.906 121.715,220.872 121.846,220.872 122.167 M105.573 124.042 L 105.083 124.583 105.625 124.094 C 105.923 123.825,106.167 123.581,106.167 123.552 C 106.167 123.423,106.029 123.537,105.573 124.042 M174.388 125.250 C 174.389 125.892,174.419 126.134,174.455 125.788 C 174.491 125.442,174.490 124.917,174.454 124.621 C 174.417 124.325,174.387 124.608,174.388 125.250 M250.555 125.250 C 250.555 125.892,250.586 126.134,250.622 125.788 C 250.658 125.442,250.657 124.917,250.620 124.621 C 250.583 124.325,250.554 124.608,250.555 125.250 M329.205 130.000 C 329.205 130.321,329.240 130.452,329.282 130.292 C 329.323 130.131,329.323 129.869,329.282 129.708 C 329.240 129.548,329.205 129.679,329.205 130.000 M164.167 130.500 L 154.417 130.587 164.115 130.627 C 170.444 130.653,173.849 130.609,173.917 130.500 C 173.973 130.408,173.996 130.351,173.968 130.373 C 173.940 130.395,169.529 130.452,164.167 130.500 M235.458 130.625 C 238.140 130.651,242.527 130.651,245.208 130.625 C 247.890 130.599,245.696 130.578,240.333 130.578 C 234.971 130.578,232.777 130.599,235.458 130.625 M319.217 131.667 C 319.217 132.171,319.248 132.377,319.286 132.125 C 319.324 131.873,319.324 131.460,319.286 131.208 C 319.248 130.956,319.217 131.162,319.217 131.667 M72.548 132.250 C 72.549 132.708,72.581 132.876,72.620 132.623 C 72.658 132.369,72.657 131.994,72.617 131.789 C 72.578 131.584,72.546 131.792,72.548 132.250 M144.881 132.250 C 144.882 132.708,144.915 132.876,144.953 132.623 C 144.991 132.369,144.990 131.994,144.951 131.789 C 144.911 131.584,144.880 131.792,144.881 132.250 M154.212 132.500 C 154.212 132.912,154.245 133.081,154.284 132.875 C 154.324 132.669,154.324 132.331,154.284 132.125 C 154.245 131.919,154.212 132.087,154.212 132.500 M345.491 139.625 L 344.917 140.250 345.542 139.676 C 346.123 139.141,346.243 139.000,346.116 139.000 C 346.088 139.000,345.807 139.281,345.491 139.625 " stroke="none" fill="#ec6e50" fill-rule="evenodd"></path><path id="path4" d="M273.302 99.791 C 274.706 99.819,276.956 99.819,278.302 99.791 C 279.648 99.763,278.500 99.740,275.750 99.741 C 273.000 99.741,271.898 99.763,273.302 99.791 M161.294 119.618 C 161.501 119.658,161.801 119.656,161.960 119.615 C 162.120 119.573,161.950 119.540,161.583 119.542 C 161.217 119.544,161.086 119.578,161.294 119.618 M237.542 119.615 C 237.702 119.657,237.965 119.657,238.125 119.615 C 238.285 119.573,238.154 119.539,237.833 119.539 C 237.512 119.539,237.381 119.573,237.542 119.615 M304.208 121.948 C 304.369 121.990,304.631 121.990,304.792 121.948 C 304.952 121.906,304.821 121.872,304.500 121.872 C 304.179 121.872,304.048 121.906,304.208 121.948 M124.879 125.667 C 124.879 126.079,124.911 126.248,124.951 126.042 C 124.991 125.835,124.991 125.498,124.951 125.292 C 124.911 125.085,124.879 125.254,124.879 125.667 M230.375 132.583 C 230.377 132.950,230.411 133.080,230.451 132.873 C 230.491 132.666,230.490 132.366,230.448 132.206 C 230.406 132.047,230.374 132.217,230.375 132.583 " stroke="none" fill="#ec8c6c" fill-rule="evenodd"></path></g></svg>